<svg xmlns="http://www.w3.org/2000/svg" width="1200" height="566" viewBox="0 0 1200 566" role="img" aria-labelledby="title desc">
  <title id="title">不碰才付路径Payoff图</title><desc id="desc">由Python Payoffer根据本次ResolvedContract计算并由共享现金流解释器逐点核对的参数化路径Payoff图。</desc>
  <defs><linearGradient id="everbright-red-gold" x1="0" y1="0" x2="1" y2="0"><stop offset="0" stop-color="#C8102E"/><stop offset="1" stop-color="#D89B27"/></linearGradient><style>
  .cn{font-family:"PingFang SC","Microsoft YaHei","Noto Sans CJK SC",Arial,sans-serif}.card{fill:#fff;stroke:#CFCFCF;stroke-width:1.1}.card-accent{stroke:#C8102E;stroke-width:4.5}.scenario-no{font-size:17px;font-weight:700;fill:#252525}.scenario-note{font-size:10.5px;fill:#6F7780}.axis-title{font-size:12px;font-weight:600;fill:#252525}.reference-label,.range-label{font-size:12px;fill:#4F4F4F}.axis{stroke:#252525;stroke-width:1.3}.axis-arrow{fill:#252525}.threshold{stroke-width:1;opacity:.82}.threshold-value{font-size:11px;font-weight:700}.payoff-guide{stroke:#B9BEC7;stroke-width:1;stroke-dasharray:3 4}.payoff-level-label{font-size:11px;font-weight:600;fill:#6F7780}.payoff-line{fill:none;stroke:#C8102E;stroke-width:2.6;stroke-linecap:round;stroke-linejoin:round}.payoff-jump{stroke:#C8102E;stroke-width:1.4;stroke-dasharray:4 3;fill:none}.curve-turn{fill:#6B3FA0;stroke:#fff;stroke-width:1.2}.curve-endpoint{stroke:#C8102E;stroke-width:1.7}.curve-endpoint.open{fill:#fff}.curve-endpoint.closed{fill:#C8102E}.global-legend{font-size:12px;fill:#555}.global-legend .token-sub{font-size:9px}
  </style></defs>
  <rect width="1200" height="566" fill="#fff"/><rect x="16" y="16" width="1168" height="56" fill="url(#everbright-red-gold)"/><rect x="16" y="16" width="8" height="56" fill="#A80F28"/><text class="cn" x="38" y="52" fill="#fff" font-size="26" font-weight="700">不碰才付</text>
  <g data-path-card="0">
  <defs><clipPath id="payoffer-card-clip-0"><rect x="20" y="96" width="570" height="392"/></clipPath></defs>
  <rect class="card" x="16" y="92" width="578" height="400"/><line class="card-accent" x1="16" y1="94" x2="594" y2="94"/>
  <g clip-path="url(#payoffer-card-clip-0)">
  <text class="cn scenario-no" x="40" y="131">路径1</text><text class="cn scenario-note" x="40" y="150">固定非终值历史，仅终值变化</text>
  <line class="payoff-guide" x1="54" y1="217.7692" x2="556" y2="217.7692"/><text class="cn payoff-level-label" x="322.8889" y="210.7692" text-anchor="end">+12%</text>
  <line class="axis" x1="54" y1="416.2308" x2="556" y2="416.2308"/><line class="axis" x1="332.8889" y1="188" x2="332.8889" y2="446"/>
  <path class="axis-arrow" d="M332.8889 181 L328.3889 190 L337.3889 190 Z"/><path class="axis-arrow" d="M563 416.2308 L554 411.7308 L554 420.7308 Z"/>
  <line class="threshold" style="stroke:#D89B27;stroke-dasharray:8 4" x1="374.7222" y1="188" x2="374.7222" y2="446"/><text class="cn threshold-value" x="374.7222" y="162" text-anchor="middle" style="fill:#D89B27">115%</text><path class="payoff-line" d="M54 217.7692 L60.8239 217.7692 L67.6478 217.7692 L74.4716 217.7692 L81.2955 217.7692 L88.1194 217.7692 L94.9433 217.7692 L101.7671 217.7692 L108.591 217.7692 L115.4149 217.7692 L122.2388 217.7692 L129.0626 217.7692 L135.8865 217.7692 L142.7104 217.7692 L149.5343 217.7692 L156.3582 217.7692 L163.182 217.7692 L170.0059 217.7692 L176.8298 217.7692 L183.6537 217.7692 L190.4775 217.7692 L197.3014 217.7692 L204.1253 217.7692 L210.9492 217.7692 L217.773 217.7692 L224.5969 217.7692 L231.4208 217.7692 L238.2447 217.7692 L245.0686 217.7692 L251.8924 217.7692 L258.7163 217.7692 L265.5402 217.7692 L272.3641 217.7692 L279.1879 217.7692 L286.0118 217.7692 L292.8357 217.7692 L299.6596 217.7692 L306.4835 217.7692 L313.3073 217.7692 L320.1312 217.7692 L326.9551 217.7692 L333.779 217.7692 L340.6028 217.7692 L347.4267 217.7692 L354.2506 217.7692 L361.0745 217.7692 L367.8983 217.7692 L374.7222 217.7692"/><circle class="curve-endpoint open" cx="374.7222" cy="217.7692" r="4.4"/>
  <text class="cn axis-title" x="332.8889" y="176" text-anchor="middle">净收益率</text><text class="cn reference-label" x="342.8889" y="440.2308" text-anchor="start">100%</text><text class="cn axis-title" x="556" y="440.2308" text-anchor="end">到期标的价格</text>
  </g>
</g><g data-path-card="1">
  <defs><clipPath id="payoffer-card-clip-1"><rect x="610" y="96" width="570" height="392"/></clipPath></defs>
  <rect class="card" x="606" y="92" width="578" height="400"/><line class="card-accent" x1="606" y1="94" x2="1184" y2="94"/>
  <g clip-path="url(#payoffer-card-clip-1)">
  <text class="cn scenario-no" x="630" y="131">路径2</text><text class="cn scenario-note" x="630" y="150">固定非终值历史，仅终值变化</text>
  <line class="payoff-guide" x1="644" y1="413.9231" x2="1146" y2="413.9231"/><text class="cn payoff-level-label" x="912.8889" y="406.9231" text-anchor="end">-8%</text>
  <line class="axis" x1="644" y1="200.0769" x2="1146" y2="200.0769"/><line class="axis" x1="922.8889" y1="168" x2="922.8889" y2="446"/>
  <path class="axis-arrow" d="M922.8889 161 L918.3889 170 L927.3889 170 Z"/><path class="axis-arrow" d="M1153 200.0769 L1144 195.5769 L1144 204.5769 Z"/>
  <path class="payoff-line" d="M644 413.9231 L654.6809 413.9231 L665.3617 413.9231 L676.0426 413.9231 L686.7234 413.9231 L697.4043 413.9231 L708.0851 413.9231 L718.766 413.9231 L729.4468 413.9231 L740.1277 413.9231 L750.8085 413.9231 L761.4894 413.9231 L772.1702 413.9231 L782.8511 413.9231 L793.5319 413.9231 L804.2128 413.9231 L814.8936 413.9231 L825.5745 413.9231 L836.2553 413.9231 L846.9362 413.9231 L857.617 413.9231 L868.2979 413.9231 L878.9787 413.9231 L889.6596 413.9231 L900.3404 413.9231 L911.0213 413.9231 L921.7021 413.9231 L932.383 413.9231 L943.0638 413.9231 L953.7447 413.9231 L964.4255 413.9231 L975.1064 413.9231 L985.7872 413.9231 L996.4681 413.9231 L1007.1489 413.9231 L1017.8298 413.9231 L1028.5106 413.9231 L1039.1915 413.9231 L1049.8723 413.9231 L1060.5532 413.9231 L1071.234 413.9231 L1081.9149 413.9231 L1092.5957 413.9231 L1103.2766 413.9231 L1113.9574 413.9231 L1124.6383 413.9231 L1135.3191 413.9231 L1146 413.9231"/>
  <text class="cn axis-title" x="922.8889" y="156" text-anchor="middle">净收益率</text><text class="cn reference-label" x="932.8889" y="224.0769" text-anchor="start">100%</text><text class="cn axis-title" x="1146" y="224.0769" text-anchor="end">到期标的价格</text>
  </g>
</g>
  <line x1="16" y1="516" x2="1184" y2="516" stroke="#C8102E" stroke-width="1.4"/><g class="cn" data-global-legend="true"><line x1="16" y1="546" x2="58" y2="546" stroke="#C8102E" stroke-width="2.6"/><text class="global-legend" x="71" y="551">收益函数</text><line x1="170" y1="546" x2="212" y2="546" stroke="#D89B27" stroke-width="1" stroke-dasharray="8 4"/><text class="global-legend" x="225" y="551">触碰障碍 <tspan class="legend-token">H<tspan class="token-sub" baseline-shift="sub">touch</tspan></tspan> = 115%</text></g>
</svg>