<svg xmlns="http://www.w3.org/2000/svg" width="1200" height="566" viewBox="0 0 1200 566" role="img" aria-labelledby="title desc">
  <title id="title">宽跨式路径Payoff图</title><desc id="desc">由Python Payoffer根据本次ResolvedContract计算并由共享现金流解释器逐点核对的参数化路径Payoff图。</desc>
  <defs><linearGradient id="everbright-red-gold" x1="0" y1="0" x2="1" y2="0"><stop offset="0" stop-color="#C8102E"/><stop offset="1" stop-color="#D89B27"/></linearGradient><style>
  .cn{font-family:"PingFang SC","Microsoft YaHei","Noto Sans CJK SC",Arial,sans-serif}.card{fill:#fff;stroke:#CFCFCF;stroke-width:1.1}.card-accent{stroke:#C8102E;stroke-width:4.5}.scenario-no{font-size:17px;font-weight:700;fill:#252525}.scenario-note{font-size:10.5px;fill:#6F7780}.axis-title{font-size:12px;font-weight:600;fill:#252525}.reference-label,.range-label{font-size:12px;fill:#4F4F4F}.axis{stroke:#252525;stroke-width:1.3}.axis-arrow{fill:#252525}.threshold{stroke-width:1;opacity:.82}.threshold-value{font-size:11px;font-weight:700}.payoff-guide{stroke:#B9BEC7;stroke-width:1;stroke-dasharray:3 4}.payoff-level-label{font-size:11px;font-weight:600;fill:#6F7780}.payoff-line{fill:none;stroke:#C8102E;stroke-width:2.6;stroke-linecap:round;stroke-linejoin:round}.payoff-jump{stroke:#C8102E;stroke-width:1.4;stroke-dasharray:4 3;fill:none}.curve-turn{fill:#6B3FA0;stroke:#fff;stroke-width:1.2}.curve-endpoint{stroke:#C8102E;stroke-width:1.7}.curve-endpoint.open{fill:#fff}.curve-endpoint.closed{fill:#C8102E}.global-legend{font-size:12px;fill:#555}.global-legend .token-sub{font-size:9px}
  </style></defs>
  <rect width="1200" height="566" fill="#fff"/><rect x="16" y="16" width="1168" height="56" fill="url(#everbright-red-gold)"/><rect x="16" y="16" width="8" height="56" fill="#A80F28"/><text class="cn" x="38" y="52" fill="#fff" font-size="26" font-weight="700">宽跨式</text>
  <g data-path-card="0">
  <defs><clipPath id="payoffer-card-clip-0"><rect x="20" y="96" width="1160" height="392"/></clipPath></defs>
  <rect class="card" x="16" y="92" width="1168" height="400"/><line class="card-accent" x1="16" y1="94" x2="1184" y2="94"/>
  <g clip-path="url(#payoffer-card-clip-0)">
  <text class="cn scenario-no" x="40" y="131">路径1</text><text class="cn scenario-note" x="40" y="150">固定非终值历史，仅终值变化</text>
  <line class="payoff-guide" x1="54" y1="416.2308" x2="1146" y2="416.2308"/><text class="cn payoff-level-label" x="650.6667" y="409.2308" text-anchor="end">-8</text>
  <line class="axis" x1="54" y1="398.5897" x2="1146" y2="398.5897"/><line class="axis" x1="660.6667" y1="188" x2="660.6667" y2="446"/>
  <path class="axis-arrow" d="M660.6667 181 L656.1667 190 L665.1667 190 Z"/><path class="axis-arrow" d="M1153 398.5897 L1144 394.0897 L1144 403.0897 Z"/>
  <line class="threshold" style="stroke:#1F5FA8;stroke-dasharray:9 4" x1="600" y1="188" x2="600" y2="446"/><line class="threshold" style="stroke:#1F5FA8;stroke-dasharray:7 4" x1="721.3333" y1="188" x2="721.3333" y2="446"/><text class="cn threshold-value" x="600" y="162" text-anchor="middle" style="fill:#1F5FA8">90%</text><text class="cn threshold-value" x="721.3333" y="162" text-anchor="middle" style="fill:#1F5FA8">110%</text><path class="payoff-line" d="M54 217.7692 L65.617 221.9918 L77.234 226.2144 L88.8511 230.437 L100.4681 234.6596 L112.0851 238.8822 L123.7021 243.1047 L135.3191 247.3273 L146.9362 251.5499 L158.5532 255.7725 L170.1702 259.9951 L181.7872 264.2177 L193.4043 268.4403 L205.0213 272.6628 L216.6383 276.8854 L228.2553 281.108 L239.8723 285.3306 L251.4894 289.5532 L263.1064 293.7758 L274.7234 297.9984 L286.3404 302.2209 L297.9574 306.4435 L309.5745 310.6661 L321.1915 314.8887 L332.8085 319.1113 L344.4255 323.3339 L356.0426 327.5565 L367.6596 331.7791 L379.2766 336.0016 L390.8936 340.2242 L402.5106 344.4468 L414.1277 348.6694 L425.7447 352.892 L437.3617 357.1146 L448.9787 361.3372 L460.5957 365.5597 L472.2128 369.7823 L483.8298 374.0049 L495.4468 378.2275 L507.0638 382.4501 L518.6809 386.6727 L530.2979 390.8953 L541.9149 395.1178 L553.5319 399.3404 L565.1489 403.563 L576.766 407.7856 L588.383 412.0082 L600 416.2308 M600 416.2308 L602.5816 416.2308 L605.1631 416.2308 L607.7447 416.2308 L610.3262 416.2308 L612.9078 416.2308 L615.4894 416.2308 L618.0709 416.2308 L620.6525 416.2308 L623.234 416.2308 L625.8156 416.2308 L628.3972 416.2308 L630.9787 416.2308 L633.5603 416.2308 L636.1418 416.2308 L638.7234 416.2308 L641.305 416.2308 L643.8865 416.2308 L646.4681 416.2308 L649.0496 416.2308 L651.6312 416.2308 L654.2128 416.2308 L656.7943 416.2308 L659.3759 416.2308 L661.9574 416.2308 L664.539 416.2308 L667.1206 416.2308 L669.7021 416.2308 L672.2837 416.2308 L674.8652 416.2308 L677.4468 416.2308 L680.0284 416.2308 L682.6099 416.2308 L685.1915 416.2308 L687.773 416.2308 L690.3546 416.2308 L692.9362 416.2308 L695.5177 416.2308 L698.0993 416.2308 L700.6809 416.2308 L703.2624 416.2308 L705.844 416.2308 L708.4255 416.2308 L711.0071 416.2308 L713.5887 416.2308 L716.1702 416.2308 L718.7518 416.2308 L721.3333 416.2308 M721.3333 416.2308 L730.3688 412.9465 L739.4043 409.6623 L748.4397 406.3781 L757.4752 403.0938 L766.5106 399.8096 L775.5461 396.5254 L784.5816 393.2411 L793.617 389.9569 L802.6525 386.6727 L811.6879 383.3884 L820.7234 380.1042 L829.7589 376.82 L838.7943 373.5357 L847.8298 370.2515 L856.8652 366.9673 L865.9007 363.683 L874.9362 360.3988 L883.9716 357.1146 L893.0071 353.8303 L902.0426 350.5461 L911.078 347.2619 L920.1135 343.9776 L929.1489 340.6934 L938.1844 337.4092 L947.2199 334.1249 L956.2553 330.8407 L965.2908 327.5565 L974.3262 324.2722 L983.3617 320.988 L992.3972 317.7038 L1001.4326 314.4195 L1010.4681 311.1353 L1019.5035 307.8511 L1028.539 304.5668 L1037.5745 301.2826 L1046.6099 297.9984 L1055.6454 294.7141 L1064.6809 291.4299 L1073.7163 288.1457 L1082.7518 284.8614 L1091.7872 281.5772 L1100.8227 278.293 L1109.8582 275.0087 L1118.8936 271.7245 L1127.9291 268.4403 L1136.9645 265.156 L1146 261.8718"/><circle class="curve-turn" cx="600" cy="416.2308" r="3.6"/><circle class="curve-turn" cx="721.3333" cy="416.2308" r="3.6"/>
  <text class="cn axis-title" x="660.6667" y="176" text-anchor="middle">净收益</text><text class="cn reference-label" x="670.6667" y="422.5897" text-anchor="start">100%</text><text class="cn axis-title" x="1146" y="422.5897" text-anchor="end">到期标的价格</text>
  </g>
</g>
  <line x1="16" y1="516" x2="1184" y2="516" stroke="#C8102E" stroke-width="1.4"/><g class="cn" data-global-legend="true"><line x1="16" y1="546" x2="58" y2="546" stroke="#C8102E" stroke-width="2.6"/><text class="global-legend" x="71" y="551">收益函数</text><line x1="170" y1="546" x2="212" y2="546" stroke="#1F5FA8" stroke-width="1" stroke-dasharray="9 4"/><text class="global-legend" x="225" y="551">执行价1 <tspan class="legend-token">K<tspan class="token-sub" baseline-shift="sub">1</tspan></tspan> = 90%</text><line x1="380" y1="546" x2="422" y2="546" stroke="#1F5FA8" stroke-width="1" stroke-dasharray="7 4"/><text class="global-legend" x="435" y="551">执行价2 <tspan class="legend-token">K<tspan class="token-sub" baseline-shift="sub">2</tspan></tspan> = 110%</text></g>
</svg>