<svg xmlns="http://www.w3.org/2000/svg" width="1200" height="566" viewBox="0 0 1200 566" role="img" aria-labelledby="title desc">
  <title id="title">方差互换路径Payoff图</title><desc id="desc">由Python Payoffer根据本次ResolvedContract计算并由共享现金流解释器逐点核对的参数化路径Payoff图。</desc>
  <defs><linearGradient id="everbright-red-gold" x1="0" y1="0" x2="1" y2="0"><stop offset="0" stop-color="#C8102E"/><stop offset="1" stop-color="#D89B27"/></linearGradient><style>
  .cn{font-family:"PingFang SC","Microsoft YaHei","Noto Sans CJK SC",Arial,sans-serif}.card{fill:#fff;stroke:#CFCFCF;stroke-width:1.1}.card-accent{stroke:#C8102E;stroke-width:4.5}.scenario-no{font-size:17px;font-weight:700;fill:#252525}.scenario-note{font-size:10.5px;fill:#6F7780}.axis-title{font-size:12px;font-weight:600;fill:#252525}.reference-label,.range-label{font-size:12px;fill:#4F4F4F}.axis{stroke:#252525;stroke-width:1.3}.axis-arrow{fill:#252525}.threshold{stroke-width:1;opacity:.82}.threshold-value{font-size:11px;font-weight:700}.payoff-guide{stroke:#B9BEC7;stroke-width:1;stroke-dasharray:3 4}.payoff-level-label{font-size:11px;font-weight:600;fill:#6F7780}.payoff-line{fill:none;stroke:#C8102E;stroke-width:2.6;stroke-linecap:round;stroke-linejoin:round}.payoff-jump{stroke:#C8102E;stroke-width:1.4;stroke-dasharray:4 3;fill:none}.curve-turn{fill:#6B3FA0;stroke:#fff;stroke-width:1.2}.curve-endpoint{stroke:#C8102E;stroke-width:1.7}.curve-endpoint.open{fill:#fff}.curve-endpoint.closed{fill:#C8102E}.global-legend{font-size:12px;fill:#555}.global-legend .token-sub{font-size:9px}
  </style></defs>
  <rect width="1200" height="566" fill="#fff"/><rect x="16" y="16" width="1168" height="56" fill="url(#everbright-red-gold)"/><rect x="16" y="16" width="8" height="56" fill="#A80F28"/><text class="cn" x="38" y="52" fill="#fff" font-size="26" font-weight="700">方差互换</text>
  <g data-path-card="0">
  <defs><clipPath id="payoffer-card-clip-0"><rect x="20" y="96" width="1160" height="392"/></clipPath></defs>
  <rect class="card" x="16" y="92" width="1168" height="400"/><line class="card-accent" x1="16" y1="94" x2="1184" y2="94"/>
  <g clip-path="url(#payoffer-card-clip-0)">
  <text class="cn scenario-no" x="40" y="131">路径1</text><text class="cn scenario-note" x="40" y="150">按横轴路径统计量构造确定性候选路径</text>
  
  <line class="axis" x1="54" y1="406.7539" x2="1146" y2="406.7539"/><line class="axis" x1="54" y1="168" x2="54" y2="446"/>
  <path class="axis-arrow" d="M54 161 L49.5 170 L58.5 170 Z"/><path class="axis-arrow" d="M1153 406.7539 L1144 402.2539 L1144 411.2539 Z"/>
  <path class="payoff-line" d="M54 413.9231 L77.234 413.8263 L100.4681 413.5358 L123.7021 413.0518 L146.9362 412.3742 L170.1702 411.5029 L193.4043 410.438 L216.6383 409.1795 L239.8723 407.7274 L263.1064 406.0817 L286.3404 404.2424 L309.5745 402.2095 L332.8085 399.9829 L356.0426 397.5627 L379.2766 394.949 L402.5106 392.1416 L425.7447 389.1405 L448.9787 385.9459 L472.2128 382.5577 L495.4468 378.9758 L518.6809 375.2004 L541.9149 371.2313 L565.1489 367.0686 L588.383 362.7123 L611.617 358.1624 L634.8511 353.4188 L658.0851 348.4817 L681.3191 343.3509 L704.5532 338.0266 L727.7872 332.5086 L751.0213 326.797 L774.2553 320.8918 L797.4894 314.7929 L820.7234 308.5005 L843.9574 302.0145 L867.1915 295.3348 L890.4255 288.4615 L913.6596 281.3946 L936.8936 274.1341 L960.1277 266.68 L983.3617 259.0322 L1006.5957 251.1909 L1029.8298 243.1559 L1053.0638 234.9274 L1076.2979 226.5052 L1099.5319 217.8894 L1122.766 209.08 L1146 200.0769"/>
  <text class="cn axis-title" x="54" y="156" text-anchor="middle">净收益</text><text class="cn reference-label" x="64" y="430.7539" text-anchor="start">0%</text><text class="cn axis-title" x="1146" y="430.7539" text-anchor="end">已实现波动率</text>
  </g>
</g>
  <line x1="16" y1="516" x2="1184" y2="516" stroke="#C8102E" stroke-width="1.4"/><g class="cn" data-global-legend="true"><line x1="16" y1="546" x2="58" y2="546" stroke="#C8102E" stroke-width="2.6"/><text class="global-legend" x="71" y="551">收益函数</text></g>
</svg>