<svg xmlns="http://www.w3.org/2000/svg" width="1200" height="566" viewBox="0 0 1200 566" role="img" aria-labelledby="title desc">
  <title id="title">资产二元看涨路径Payoff图</title><desc id="desc">由Python Payoffer根据本次ResolvedContract计算并由共享现金流解释器逐点核对的参数化路径Payoff图。</desc>
  <defs><linearGradient id="everbright-red-gold" x1="0" y1="0" x2="1" y2="0"><stop offset="0" stop-color="#C8102E"/><stop offset="1" stop-color="#D89B27"/></linearGradient><style>
  .cn{font-family:"PingFang SC","Microsoft YaHei","Noto Sans CJK SC",Arial,sans-serif}.card{fill:#fff;stroke:#CFCFCF;stroke-width:1.1}.card-accent{stroke:#C8102E;stroke-width:4.5}.scenario-no{font-size:17px;font-weight:700;fill:#252525}.scenario-note{font-size:10.5px;fill:#6F7780}.axis-title{font-size:12px;font-weight:600;fill:#252525}.reference-label,.range-label{font-size:12px;fill:#4F4F4F}.axis{stroke:#252525;stroke-width:1.3}.axis-arrow{fill:#252525}.threshold{stroke-width:1;opacity:.82}.threshold-value{font-size:11px;font-weight:700}.payoff-guide{stroke:#B9BEC7;stroke-width:1;stroke-dasharray:3 4}.payoff-level-label{font-size:11px;font-weight:600;fill:#6F7780}.payoff-line{fill:none;stroke:#C8102E;stroke-width:2.6;stroke-linecap:round;stroke-linejoin:round}.payoff-jump{stroke:#C8102E;stroke-width:1.4;stroke-dasharray:4 3;fill:none}.curve-turn{fill:#6B3FA0;stroke:#fff;stroke-width:1.2}.curve-endpoint{stroke:#C8102E;stroke-width:1.7}.curve-endpoint.open{fill:#fff}.curve-endpoint.closed{fill:#C8102E}.global-legend{font-size:12px;fill:#555}.global-legend .token-sub{font-size:9px}
  </style></defs>
  <rect width="1200" height="566" fill="#fff"/><rect x="16" y="16" width="1168" height="56" fill="url(#everbright-red-gold)"/><rect x="16" y="16" width="8" height="56" fill="#A80F28"/><text class="cn" x="38" y="52" fill="#fff" font-size="26" font-weight="700">资产二元看涨</text>
  <g data-path-card="0">
  <defs><clipPath id="payoffer-card-clip-0"><rect x="20" y="96" width="1160" height="392"/></clipPath></defs>
  <rect class="card" x="16" y="92" width="1168" height="400"/><line class="card-accent" x1="16" y1="94" x2="1184" y2="94"/>
  <g clip-path="url(#payoffer-card-clip-0)">
  <text class="cn scenario-no" x="40" y="131">路径1</text><text class="cn scenario-note" x="40" y="150">固定非终值历史，仅终值变化</text>
  <line class="payoff-guide" x1="54" y1="413.9231" x2="1146" y2="413.9231"/><text class="cn payoff-level-label" x="650.6667" y="406.9231" text-anchor="end">-50%</text>
  <line class="axis" x1="54" y1="354.5214" x2="1146" y2="354.5214"/><line class="axis" x1="660.6667" y1="168" x2="660.6667" y2="446"/>
  <path class="axis-arrow" d="M660.6667 161 L656.1667 170 L665.1667 170 Z"/><path class="axis-arrow" d="M1153 354.5214 L1144 350.0214 L1144 359.0214 Z"/>
  <line class="payoff-jump" x1="660.6667" y1="413.9231" x2="660.6667" y2="295.1197"/><path class="payoff-line" d="M54 413.9231 L66.9078 413.9231 L79.8156 413.9231 L92.7234 413.9231 L105.6312 413.9231 L118.539 413.9231 L131.4468 413.9231 L144.3546 413.9231 L157.2624 413.9231 L170.1702 413.9231 L183.078 413.9231 L195.9858 413.9231 L208.8936 413.9231 L221.8014 413.9231 L234.7092 413.9231 L247.617 413.9231 L260.5248 413.9231 L273.4326 413.9231 L286.3404 413.9231 L299.2482 413.9231 L312.156 413.9231 L325.0638 413.9231 L337.9716 413.9231 L350.8794 413.9231 L363.7872 413.9231 L376.695 413.9231 L389.6028 413.9231 L402.5106 413.9231 L415.4184 413.9231 L428.3262 413.9231 L441.234 413.9231 L454.1418 413.9231 L467.0496 413.9231 L479.9574 413.9231 L492.8652 413.9231 L505.773 413.9231 L518.6809 413.9231 L531.5887 413.9231 L544.4965 413.9231 L557.4043 413.9231 L570.3121 413.9231 L583.2199 413.9231 L596.1277 413.9231 L609.0355 413.9231 L621.9433 413.9231 L634.8511 413.9231 L647.7589 413.9231 L660.6667 413.9231 M660.6667 295.1197 L670.9929 293.0975 L681.3191 291.0753 L691.6454 289.0531 L701.9716 287.0309 L712.2979 285.0087 L722.6241 282.9865 L732.9504 280.9644 L743.2766 278.9422 L753.6028 276.92 L763.9291 274.8978 L774.2553 272.8756 L784.5816 270.8534 L794.9078 268.8312 L805.234 266.8091 L815.5603 264.7869 L825.8865 262.7647 L836.2128 260.7425 L846.539 258.7203 L856.8652 256.6981 L867.1915 254.6759 L877.5177 252.6538 L887.844 250.6316 L898.1702 248.6094 L908.4965 246.5872 L918.8227 244.565 L929.1489 242.5428 L939.4752 240.5206 L949.8014 238.4985 L960.1277 236.4763 L970.4539 234.4541 L980.7801 232.4319 L991.1064 230.4097 L1001.4326 228.3875 L1011.7589 226.3653 L1022.0851 224.3432 L1032.4113 222.321 L1042.7376 220.2988 L1053.0638 218.2766 L1063.3901 216.2544 L1073.7163 214.2322 L1084.0426 212.21 L1094.3688 210.1879 L1104.695 208.1657 L1115.0213 206.1435 L1125.3475 204.1213 L1135.6738 202.0991 L1146 200.0769"/><circle class="curve-endpoint closed" cx="660.6667" cy="413.9231" r="4.4"/><circle class="curve-endpoint open" cx="660.6667" cy="295.1197" r="4.4"/>
  <text class="cn axis-title" x="660.6667" y="156" text-anchor="middle">净收益率</text><text class="cn reference-label" x="670.6667" y="378.5214" text-anchor="start">100%</text><text class="cn axis-title" x="1146" y="378.5214" text-anchor="end">到期标的价格</text>
  </g>
</g>
  <line x1="16" y1="516" x2="1184" y2="516" stroke="#C8102E" stroke-width="1.4"/><g class="cn" data-global-legend="true"><line x1="16" y1="546" x2="58" y2="546" stroke="#C8102E" stroke-width="2.6"/><text class="global-legend" x="71" y="551">收益函数</text></g>
</svg>