<svg xmlns="http://www.w3.org/2000/svg" width="1200" height="978" viewBox="0 0 1200 978" role="img" aria-labelledby="title desc">
  <title id="title">标准累购路径Payoff图</title><desc id="desc">由Python Payoffer根据本次ResolvedContract计算并由共享现金流解释器逐点核对的参数化路径Payoff图。</desc>
  <defs><linearGradient id="everbright-red-gold" x1="0" y1="0" x2="1" y2="0"><stop offset="0" stop-color="#C8102E"/><stop offset="1" stop-color="#D89B27"/></linearGradient><style>
  .cn{font-family:"PingFang SC","Microsoft YaHei","Noto Sans CJK SC",Arial,sans-serif}.card{fill:#fff;stroke:#CFCFCF;stroke-width:1.1}.card-accent{stroke:#C8102E;stroke-width:4.5}.scenario-no{font-size:17px;font-weight:700;fill:#252525}.scenario-note{font-size:10.5px;fill:#6F7780}.axis-title{font-size:12px;font-weight:600;fill:#252525}.reference-label,.range-label{font-size:12px;fill:#4F4F4F}.axis{stroke:#252525;stroke-width:1.3}.axis-arrow{fill:#252525}.threshold{stroke-width:1;opacity:.82}.threshold-value{font-size:11px;font-weight:700}.payoff-guide{stroke:#B9BEC7;stroke-width:1;stroke-dasharray:3 4}.payoff-level-label{font-size:11px;font-weight:600;fill:#6F7780}.payoff-line{fill:none;stroke:#C8102E;stroke-width:2.6;stroke-linecap:round;stroke-linejoin:round}.payoff-jump{stroke:#C8102E;stroke-width:1.4;stroke-dasharray:4 3;fill:none}.curve-turn{fill:#6B3FA0;stroke:#fff;stroke-width:1.2}.curve-endpoint{stroke:#C8102E;stroke-width:1.7}.curve-endpoint.open{fill:#fff}.curve-endpoint.closed{fill:#C8102E}.global-legend{font-size:12px;fill:#555}.global-legend .token-sub{font-size:9px}
  </style></defs>
  <rect width="1200" height="978" fill="#fff"/><rect x="16" y="16" width="1168" height="56" fill="url(#everbright-red-gold)"/><rect x="16" y="16" width="8" height="56" fill="#A80F28"/><text class="cn" x="38" y="52" fill="#fff" font-size="26" font-weight="700">标准累购</text>
  <g data-path-card="0">
  <defs><clipPath id="payoffer-card-clip-0"><rect x="20" y="96" width="570" height="392"/></clipPath></defs>
  <rect class="card" x="16" y="92" width="578" height="400"/><line class="card-accent" x1="16" y1="94" x2="594" y2="94"/>
  <g clip-path="url(#payoffer-card-clip-0)">
  <text class="cn scenario-no" x="40" y="131">路径1</text><text class="cn scenario-note" x="40" y="150">固定非终值历史，仅终值变化</text>
  
  <line class="axis" x1="54" y1="327" x2="556" y2="327"/><line class="axis" x1="332.8889" y1="208" x2="332.8889" y2="446"/>
  <path class="axis-arrow" d="M332.8889 201 L328.3889 210 L337.3889 210 Z"/><path class="axis-arrow" d="M563 327 L554 322.5 L554 331.5 Z"/>
  <line class="threshold" style="stroke:#D89B27;stroke-dasharray:12 5" x1="346.8333" y1="208" x2="346.8333" y2="446"/><line class="threshold" style="stroke:#1F5FA8;stroke-dasharray:9 4" x1="305" y1="208" x2="305" y2="446"/><text class="cn threshold-value" x="305" y="162" text-anchor="middle" style="fill:#1F5FA8">执行价 K=90%</text><text class="cn threshold-value" x="346.8333" y="182" text-anchor="middle" style="fill:#D89B27">敲出障碍 H_out=105%</text><path class="payoff-line" d="M54 418.5385 L64.6809 414.6432 L75.3617 410.748 L86.0426 406.8527 L96.7234 402.9574 L107.4043 399.0622 L118.0851 395.1669 L128.766 391.2717 L139.4468 387.3764 L150.1277 383.4812 L160.8085 379.5859 L171.4894 375.6907 L182.1702 371.7954 L192.8511 367.9002 L203.5319 364.0049 L214.2128 360.1097 L224.8936 356.2144 L235.5745 352.3191 L246.2553 348.4239 L256.9362 344.5286 L267.617 340.6334 L278.2979 336.7381 L288.9787 332.8429 L299.6596 328.9476 L310.3404 325.0524 L321.0213 321.1571 L331.7021 317.2619 L342.383 313.3666 L353.0638 309.4714 L363.7447 305.5761 L374.4255 301.6809 L385.1064 297.7856 L395.7872 293.8903 L406.4681 289.9951 L417.1489 286.0998 L427.8298 282.2046 L438.5106 278.3093 L449.1915 274.4141 L459.8723 270.5188 L470.5532 266.6236 L481.234 262.7283 L491.9149 258.8331 L502.5957 254.9378 L513.2766 251.0426 L523.9574 247.1473 L534.6383 243.252 L545.3191 239.3568 L556 235.4615"/>
  <text class="cn axis-title" x="332.8889" y="196" text-anchor="middle">净收益率</text><text class="cn reference-label" x="342.8889" y="351" text-anchor="start">100%</text><text class="cn axis-title" x="556" y="351" text-anchor="end">到期标的价格</text>
  </g>
</g><g data-path-card="1">
  <defs><clipPath id="payoffer-card-clip-1"><rect x="610" y="96" width="570" height="392"/></clipPath></defs>
  <rect class="card" x="606" y="92" width="578" height="400"/><line class="card-accent" x1="606" y1="94" x2="1184" y2="94"/>
  <g clip-path="url(#payoffer-card-clip-1)">
  <text class="cn scenario-no" x="630" y="131">路径2</text><text class="cn scenario-note" x="630" y="150">固定非终值历史，仅终值变化</text>
  
  <line class="axis" x1="644" y1="327" x2="1146" y2="327"/><line class="axis" x1="922.8889" y1="208" x2="922.8889" y2="446"/>
  <path class="axis-arrow" d="M922.8889 201 L918.3889 210 L927.3889 210 Z"/><path class="axis-arrow" d="M1153 327 L1144 322.5 L1144 331.5 Z"/>
  <line class="threshold" style="stroke:#D89B27;stroke-dasharray:12 5" x1="936.8333" y1="208" x2="936.8333" y2="446"/><line class="threshold" style="stroke:#1F5FA8;stroke-dasharray:9 4" x1="895" y1="208" x2="895" y2="446"/><text class="cn threshold-value" x="895" y="162" text-anchor="middle" style="fill:#1F5FA8">执行价 K=90%</text><text class="cn threshold-value" x="936.8333" y="182" text-anchor="middle" style="fill:#D89B27">敲出障碍 H_out=105%</text><path class="payoff-line" d="M644 418.5385 L654.6809 414.6432 L665.3617 410.748 L676.0426 406.8527 L686.7234 402.9574 L697.4043 399.0622 L708.0851 395.1669 L718.766 391.2717 L729.4468 387.3764 L740.1277 383.4812 L750.8085 379.5859 L761.4894 375.6907 L772.1702 371.7954 L782.8511 367.9002 L793.5319 364.0049 L804.2128 360.1097 L814.8936 356.2144 L825.5745 352.3191 L836.2553 348.4239 L846.9362 344.5286 L857.617 340.6334 L868.2979 336.7381 L878.9787 332.8429 L889.6596 328.9476 L900.3404 325.0524 L911.0213 321.1571 L921.7021 317.2619 L932.383 313.3666 L943.0638 309.4714 L953.7447 305.5761 L964.4255 301.6809 L975.1064 297.7856 L985.7872 293.8903 L996.4681 289.9951 L1007.1489 286.0998 L1017.8298 282.2046 L1028.5106 278.3093 L1039.1915 274.4141 L1049.8723 270.5188 L1060.5532 266.6236 L1071.234 262.7283 L1081.9149 258.8331 L1092.5957 254.9378 L1103.2766 251.0426 L1113.9574 247.1473 L1124.6383 243.252 L1135.3191 239.3568 L1146 235.4615"/>
  <text class="cn axis-title" x="922.8889" y="196" text-anchor="middle">净收益率</text><text class="cn reference-label" x="932.8889" y="351" text-anchor="start">100%</text><text class="cn axis-title" x="1146" y="351" text-anchor="end">到期标的价格</text>
  </g>
</g><g data-path-card="2">
  <defs><clipPath id="payoffer-card-clip-2"><rect x="20" y="508" width="570" height="392"/></clipPath></defs>
  <rect class="card" x="16" y="504" width="578" height="400"/><line class="card-accent" x1="16" y1="506" x2="594" y2="506"/>
  <g clip-path="url(#payoffer-card-clip-2)">
  <text class="cn scenario-no" x="40" y="543">路径3</text><text class="cn scenario-note" x="40" y="562">固定非终值历史，仅终值变化</text>
  
  <line class="axis" x1="54" y1="671.108" x2="556" y2="671.108"/><line class="axis" x1="332.8889" y1="620" x2="332.8889" y2="858"/>
  <path class="axis-arrow" d="M332.8889 613 L328.3889 622 L337.3889 622 Z"/><path class="axis-arrow" d="M563 671.108 L554 666.608 L554 675.608 Z"/>
  <line class="threshold" style="stroke:#D89B27;stroke-dasharray:12 5" x1="346.8333" y1="620" x2="346.8333" y2="858"/><line class="threshold" style="stroke:#1F5FA8;stroke-dasharray:9 4" x1="305" y1="620" x2="305" y2="858"/><text class="cn threshold-value" x="305" y="574" text-anchor="middle" style="fill:#1F5FA8">执行价 K=90%</text><text class="cn threshold-value" x="346.8333" y="594" text-anchor="middle" style="fill:#D89B27">敲出障碍 H_out=105%</text><path class="payoff-line" d="M54 830.5385 L64.6809 823.7542 L75.3617 816.9699 L86.0426 810.1856 L96.7234 803.4014 L107.4043 796.6171 L118.0851 789.8328 L128.766 783.0485 L139.4468 776.2643 L150.1277 769.48 L160.8085 762.6957 L171.4894 755.9114 L182.1702 749.1272 L192.8511 742.3429 L203.5319 735.5586 L214.2128 728.7743 L224.8936 721.99 L235.5745 715.2058 L246.2553 708.4215 L256.9362 701.6372 L267.617 694.8529 L278.2979 688.0687 L288.9787 681.2844 L299.6596 674.5001 L310.3404 667.7299 L321.0213 660.9738 L331.7021 654.2177 L342.383 647.4615"/>
  <text class="cn axis-title" x="332.8889" y="608" text-anchor="middle">净收益率</text><text class="cn reference-label" x="342.8889" y="695.108" text-anchor="start">100%</text><text class="cn axis-title" x="556" y="695.108" text-anchor="end">到期标的价格</text>
  </g>
</g>
  <line x1="16" y1="928" x2="1184" y2="928" stroke="#C8102E" stroke-width="1.4"/><g class="cn" data-global-legend="true"><line x1="16" y1="958" x2="58" y2="958" stroke="#C8102E" stroke-width="2.6"/><text class="global-legend" x="71" y="963">收益函数</text><line x1="170" y1="958" x2="212" y2="958" stroke="#D89B27" stroke-width="1" stroke-dasharray="12 5"/><text class="global-legend" x="225" y="963">敲出障碍 <tspan class="legend-token">H<tspan class="token-sub" baseline-shift="sub">out</tspan></tspan> = 105%</text><line x1="404" y1="958" x2="446" y2="958" stroke="#1F5FA8" stroke-width="1" stroke-dasharray="9 4"/><text class="global-legend" x="459" y="963">执行价 <tspan class="legend-token">K</tspan> = 90%</text></g>
</svg>