<svg xmlns="http://www.w3.org/2000/svg" width="1200" height="1066" viewBox="0 0 1200 1066" role="img" aria-labelledby="title desc">
  <title id="title">凤凰式结构路径Payoff图</title><desc id="desc">由Python Payoffer根据本次ResolvedContract计算并由共享现金流解释器逐点核对的参数化路径Payoff图。</desc>
  <defs><linearGradient id="everbright-red-gold" x1="0" y1="0" x2="1" y2="0"><stop offset="0" stop-color="#C8102E"/><stop offset="1" stop-color="#D89B27"/></linearGradient><style>
  .cn{font-family:"PingFang SC","Microsoft YaHei","Noto Sans CJK SC",Arial,sans-serif}.card{fill:#fff;stroke:#CFCFCF;stroke-width:1.1}.card-accent{stroke:#C8102E;stroke-width:4.5}.scenario-no{font-size:17px;font-weight:700;fill:#252525}.scenario-note{font-size:10.5px;fill:#6F7780}.axis-title{font-size:12px;font-weight:600;fill:#252525}.reference-label,.range-label{font-size:12px;fill:#4F4F4F}.axis{stroke:#252525;stroke-width:1.3}.axis-arrow{fill:#252525}.threshold{stroke-width:1;opacity:.82}.threshold-value{font-size:11px;font-weight:700}.payoff-guide{stroke:#B9BEC7;stroke-width:1;stroke-dasharray:3 4}.payoff-level-label{font-size:11px;font-weight:600;fill:#6F7780}.payoff-line{fill:none;stroke:#C8102E;stroke-width:2.6;stroke-linecap:round;stroke-linejoin:round}.payoff-jump{stroke:#C8102E;stroke-width:1.4;stroke-dasharray:4 3;fill:none}.curve-turn{fill:#6B3FA0;stroke:#fff;stroke-width:1.2}.curve-endpoint{stroke:#C8102E;stroke-width:1.7}.curve-endpoint.open{fill:#fff}.curve-endpoint.closed{fill:#C8102E}.global-legend{font-size:12px;fill:#555}.global-legend .token-sub{font-size:9px}
  </style></defs>
  <rect width="1200" height="1066" fill="#fff"/><rect x="16" y="16" width="1168" height="56" fill="url(#everbright-red-gold)"/><rect x="16" y="16" width="8" height="56" fill="#A80F28"/><text class="cn" x="38" y="52" fill="#fff" font-size="26" font-weight="700">凤凰式结构</text>
  <g data-path-card="0">
  <defs><clipPath id="payoffer-card-clip-0"><rect x="20" y="96" width="570" height="436"/></clipPath></defs>
  <rect class="card" x="16" y="92" width="578" height="444"/><line class="card-accent" x1="16" y1="94" x2="594" y2="94"/>
  <g clip-path="url(#payoffer-card-clip-0)">
  <text class="cn scenario-no" x="40" y="131">路径1</text><text class="cn scenario-note" x="40" y="150">固定非终值历史，仅终值变化</text>
  <line class="payoff-guide" x1="54" y1="275.9231" x2="556" y2="275.9231"/><text class="cn payoff-level-label" x="322.8889" y="268.9231" text-anchor="end">+1.05%</text>
  <line class="axis" x1="54" y1="462.0769" x2="556" y2="462.0769"/><line class="axis" x1="332.8889" y1="248" x2="332.8889" y2="490"/>
  <path class="axis-arrow" d="M332.8889 241 L328.3889 250 L337.3889 250 Z"/><path class="axis-arrow" d="M563 462.0769 L554 457.5769 L554 466.5769 Z"/>
  <line class="threshold" style="stroke:#D89B27;stroke-dasharray:12 5" x1="277.1111" y1="248" x2="277.1111" y2="490"/><line class="threshold" style="stroke:#D89B27;stroke-dasharray:12 5" x1="332.8889" y1="248" x2="332.8889" y2="490"/><line class="threshold" style="stroke:#D89B27;stroke-dasharray:6 4" x1="277.1111" y1="248" x2="277.1111" y2="490"/><line class="threshold" style="stroke:#1F5FA8;stroke-dasharray:9 4" x1="332.8889" y1="248" x2="332.8889" y2="490"/><text class="cn threshold-value" x="277.1111" y="162" text-anchor="middle" style="fill:#D89B27">敲入障碍 H_in=80%</text><text class="cn threshold-value" x="277.1111" y="182" text-anchor="middle" style="fill:#D89B27">派息障碍 H_c=80%</text><text class="cn threshold-value" x="332.8889" y="202" text-anchor="middle" style="fill:#D89B27">敲出障碍 H_out=100%</text><text class="cn threshold-value" x="332.8889" y="222" text-anchor="middle" style="fill:#1F5FA8">执行价 K=100%</text><path class="payoff-line" d="M54 275.9231 L64.6809 275.9231 L75.3617 275.9231 L86.0426 275.9231 L96.7234 275.9231 L107.4043 275.9231 L118.0851 275.9231 L128.766 275.9231 L139.4468 275.9231 L150.1277 275.9231 L160.8085 275.9231 L171.4894 275.9231 L182.1702 275.9231 L192.8511 275.9231 L203.5319 275.9231 L214.2128 275.9231 L224.8936 275.9231 L235.5745 275.9231 L246.2553 275.9231 L256.9362 275.9231 L267.617 275.9231 L278.2979 275.9231 L288.9787 275.9231 L299.6596 275.9231 L310.3404 275.9231 L321.0213 275.9231 L331.7021 275.9231 L342.383 275.9231 L353.0638 275.9231 L363.7447 275.9231 L374.4255 275.9231 L385.1064 275.9231 L395.7872 275.9231 L406.4681 275.9231 L417.1489 275.9231 L427.8298 275.9231 L438.5106 275.9231 L449.1915 275.9231 L459.8723 275.9231 L470.5532 275.9231 L481.234 275.9231 L491.9149 275.9231 L502.5957 275.9231 L513.2766 275.9231 L523.9574 275.9231 L534.6383 275.9231 L545.3191 275.9231 L556 275.9231"/>
  <text class="cn axis-title" x="332.8889" y="236" text-anchor="middle">合同结算收益率</text><text class="cn reference-label" x="342.8889" y="486.0769" text-anchor="start">100%</text><text class="cn axis-title" x="556" y="486.0769" text-anchor="end">到期标的价格</text>
  </g>
</g><g data-path-card="1">
  <defs><clipPath id="payoffer-card-clip-1"><rect x="610" y="96" width="570" height="436"/></clipPath></defs>
  <rect class="card" x="606" y="92" width="578" height="444"/><line class="card-accent" x1="606" y1="94" x2="1184" y2="94"/>
  <g clip-path="url(#payoffer-card-clip-1)">
  <text class="cn scenario-no" x="630" y="131">路径2</text><text class="cn scenario-note" x="630" y="150">固定非终值历史，仅终值变化</text>
  <line class="payoff-guide" x1="644" y1="275.9231" x2="1146" y2="275.9231"/><text class="cn payoff-level-label" x="912.8889" y="268.9231" text-anchor="end">+6.3%</text>
  <line class="axis" x1="644" y1="462.0769" x2="1146" y2="462.0769"/><line class="axis" x1="922.8889" y1="248" x2="922.8889" y2="490"/>
  <path class="axis-arrow" d="M922.8889 241 L918.3889 250 L927.3889 250 Z"/><path class="axis-arrow" d="M1153 462.0769 L1144 457.5769 L1144 466.5769 Z"/>
  <line class="threshold" style="stroke:#D89B27;stroke-dasharray:12 5" x1="867.1111" y1="248" x2="867.1111" y2="490"/><line class="threshold" style="stroke:#D89B27;stroke-dasharray:12 5" x1="922.8889" y1="248" x2="922.8889" y2="490"/><line class="threshold" style="stroke:#D89B27;stroke-dasharray:6 4" x1="867.1111" y1="248" x2="867.1111" y2="490"/><line class="threshold" style="stroke:#1F5FA8;stroke-dasharray:9 4" x1="922.8889" y1="248" x2="922.8889" y2="490"/><text class="cn threshold-value" x="867.1111" y="162" text-anchor="middle" style="fill:#D89B27">敲入障碍 H_in=80%</text><text class="cn threshold-value" x="867.1111" y="182" text-anchor="middle" style="fill:#D89B27">派息障碍 H_c=80%</text><text class="cn threshold-value" x="922.8889" y="202" text-anchor="middle" style="fill:#D89B27">敲出障碍 H_out=100%</text><text class="cn threshold-value" x="922.8889" y="222" text-anchor="middle" style="fill:#1F5FA8">执行价 K=100%</text><path class="payoff-line" d="M868.2979 275.9231 L878.9787 275.9231 L889.6596 275.9231 L900.3404 275.9231 L911.0213 275.9231 L921.7021 275.9231 L932.383 275.9231 L943.0638 275.9231 L953.7447 275.9231 L964.4255 275.9231 L975.1064 275.9231 L985.7872 275.9231 L996.4681 275.9231 L1007.1489 275.9231 L1017.8298 275.9231 L1028.5106 275.9231 L1039.1915 275.9231 L1049.8723 275.9231 L1060.5532 275.9231 L1071.234 275.9231 L1081.9149 275.9231 L1092.5957 275.9231 L1103.2766 275.9231 L1113.9574 275.9231 L1124.6383 275.9231 L1135.3191 275.9231 L1146 275.9231"/>
  <text class="cn axis-title" x="922.8889" y="236" text-anchor="middle">合同结算收益率</text><text class="cn reference-label" x="932.8889" y="486.0769" text-anchor="start">100%</text><text class="cn axis-title" x="1146" y="486.0769" text-anchor="end">到期标的价格</text>
  </g>
</g><g data-path-card="2">
  <defs><clipPath id="payoffer-card-clip-2"><rect x="20" y="552" width="570" height="436"/></clipPath></defs>
  <rect class="card" x="16" y="548" width="578" height="444"/><line class="card-accent" x1="16" y1="550" x2="594" y2="550"/>
  <g clip-path="url(#payoffer-card-clip-2)">
  <text class="cn scenario-no" x="40" y="587">路径3</text><text class="cn scenario-note" x="40" y="606">固定非终值历史，仅终值变化</text>
  
  <line class="axis" x1="54" y1="731.9231" x2="556" y2="731.9231"/><line class="axis" x1="332.8889" y1="704" x2="332.8889" y2="946"/>
  <path class="axis-arrow" d="M332.8889 697 L328.3889 706 L337.3889 706 Z"/><path class="axis-arrow" d="M563 731.9231 L554 727.4231 L554 736.4231 Z"/>
  <line class="threshold" style="stroke:#1F5FA8;stroke-dasharray:9 4" x1="332.8889" y1="704" x2="332.8889" y2="946"/><line class="threshold" style="stroke:#D89B27;stroke-dasharray:12 5" x1="277.1111" y1="704" x2="277.1111" y2="946"/><line class="threshold" style="stroke:#D89B27;stroke-dasharray:12 5" x1="332.8889" y1="704" x2="332.8889" y2="946"/><line class="threshold" style="stroke:#D89B27;stroke-dasharray:6 4" x1="277.1111" y1="704" x2="277.1111" y2="946"/><text class="cn threshold-value" x="277.1111" y="618" text-anchor="middle" style="fill:#D89B27">敲入障碍 H_in=80%</text><text class="cn threshold-value" x="277.1111" y="638" text-anchor="middle" style="fill:#D89B27">派息障碍 H_c=80%</text><text class="cn threshold-value" x="332.8889" y="658" text-anchor="middle" style="fill:#1F5FA8">执行价 K=100%</text><text class="cn threshold-value" x="332.8889" y="678" text-anchor="middle" style="fill:#D89B27">敲出障碍 H_out=100%</text><path class="payoff-line" d="M54 918.0769 L59.9338 914.1162 L65.8676 910.1555 L71.8014 906.1948 L77.7352 902.234 L83.669 898.2733 L89.6028 894.3126 L95.5366 890.3519 L101.4704 886.3912 L107.4043 882.4304 L113.3381 878.4697 L119.2719 874.509 L125.2057 870.5483 L131.1395 866.5876 L137.0733 862.6268 L143.0071 858.6661 L148.9409 854.7054 L154.8747 850.7447 L160.8085 846.784 L166.7423 842.8232 L172.6761 838.8625 L178.6099 834.9018 L184.5437 830.9411 L190.4775 826.9804 L196.4113 823.0196 L202.3452 819.0589 L208.279 815.0982 L214.2128 811.1375 L220.1466 807.1768 L226.0804 803.216 L232.0142 799.2553 L237.948 795.2946 L243.8818 791.3339 L249.8156 787.3732 L255.7494 783.4124 L261.6832 779.4517 L267.617 775.491 L273.5508 771.5303 L279.4846 767.5696 L285.4184 763.6088 L291.3522 759.6481 L297.2861 755.6874 L303.2199 751.7267 L309.1537 747.766 L315.0875 743.8052 L321.0213 739.8445 L326.9551 735.8838 L332.8889 731.9231"/><circle class="curve-endpoint open" cx="332.8889" cy="731.9231" r="3.4"/>
  <text class="cn axis-title" x="332.8889" y="692" text-anchor="middle">合同结算收益率</text><text class="cn reference-label" x="342.8889" y="755.9231" text-anchor="start">100%</text><text class="cn axis-title" x="556" y="755.9231" text-anchor="end">到期标的价格</text>
  </g>
</g>
  <line x1="16" y1="1016" x2="1184" y2="1016" stroke="#C8102E" stroke-width="1.4"/><g class="cn" data-global-legend="true"><line x1="16" y1="1046" x2="58" y2="1046" stroke="#C8102E" stroke-width="2.6"/><text class="global-legend" x="71" y="1051">收益函数</text><line x1="170" y1="1046" x2="212" y2="1046" stroke="#D89B27" stroke-width="1" stroke-dasharray="12 5"/><text class="global-legend" x="225" y="1051">敲入障碍 <tspan class="legend-token">H<tspan class="token-sub" baseline-shift="sub">in</tspan></tspan> = 80%</text><line x1="388" y1="1046" x2="430" y2="1046" stroke="#D89B27" stroke-width="1" stroke-dasharray="12 5"/><text class="global-legend" x="443" y="1051">敲出障碍 <tspan class="legend-token">H<tspan class="token-sub" baseline-shift="sub">out</tspan></tspan> = 100%</text><line x1="622" y1="1046" x2="664" y2="1046" stroke="#D89B27" stroke-width="1" stroke-dasharray="6 4"/><text class="global-legend" x="677" y="1051">派息障碍 <tspan class="legend-token">H<tspan class="token-sub" baseline-shift="sub">c</tspan></tspan> = 80%</text><line x1="832" y1="1046" x2="874" y2="1046" stroke="#1F5FA8" stroke-width="1" stroke-dasharray="9 4"/><text class="global-legend" x="887" y="1051">执行价 <tspan class="legend-token">K</tspan> = 100%</text></g>
</svg>